<svg width="17" height="16" viewBox="0 0 17 16" fill="none" xmlns="http://www.w3.org/2000/svg">
<path d="M3.78335 2.16668C3.78313 2.6087 3.60732 3.03254 3.2946 3.34494C2.98188 3.65735 2.55787 3.83273 2.11585 3.83251C1.67382 3.83229 1.24998 3.65648 0.937578 3.34377C0.625174 3.03105 0.449791 2.60704 0.450012 2.16501C0.450233 1.72298 0.62604 1.29915 0.938757 0.986742C1.25147 0.674338 1.67549 0.498955 2.11751 0.499176C2.55954 0.499397 2.98338 0.675204 3.29578 0.987921C3.60818 1.30064 3.78357 1.72465 3.78335 2.16668ZM3.83335 5.06668H0.500012V15.5H3.83335V5.06668ZM9.10001 5.06668H5.78335V15.5H9.06668V10.025C9.06668 6.97501 13.0417 6.69168 13.0417 10.025V15.5H16.3333V8.89168C16.3333 3.75001 10.45 3.94168 9.06668 6.46668L9.10001 5.06668Z" fill="#7C5AC7"/>
</svg>
