<svg width="17" height="14" viewBox="0 0 17 14" fill="none" xmlns="http://www.w3.org/2000/svg">
<path d="M2.59411 3.08952C2.61351 2.89377 2.53928 2.69888 2.39162 2.56726L0.898264 0.767639V0.497662H5.53694L9.12268 8.36098L12.2748 0.497662H16.6966V0.766809L15.4184 1.99102C15.3087 2.07539 15.2556 2.21376 15.2767 2.34959V11.3485C15.2556 11.4852 15.3087 11.6228 15.4184 11.7071L16.6663 12.9313V13.2005H10.3925V12.9313L11.6825 11.6767C11.8107 11.5502 11.8107 11.5122 11.8107 11.319V4.04458L8.21739 13.1709H7.73227L3.54919 4.04458V10.1606C3.5146 10.4179 3.59981 10.6769 3.7812 10.8634L5.46186 12.9026V13.1718H0.696625V12.9026L2.37728 10.8634C2.55614 10.6769 2.63714 10.4162 2.59411 10.1606V3.08952Z" fill="#7D59C3"/>
</svg>
