<svg width="12" height="16" viewBox="0 0 12 16" fill="none" xmlns="http://www.w3.org/2000/svg">
<path d="M0.230796 5.88085C0.230796 5.23252 0.34413 4.62002 0.567463 4.04835C0.780841 3.4931 1.09786 2.98349 1.50163 2.54668C1.90458 2.11561 2.36569 1.74285 2.87163 1.43918C3.39073 1.12514 3.95271 0.888221 4.53996 0.735849C5.13431 0.579783 5.7463 0.501077 6.3608 0.501682C7.30996 0.501682 8.1933 0.702515 9.01246 1.10252C9.82094 1.49522 10.5091 2.09789 11.005 2.84752C11.5166 3.61002 11.7708 4.47251 11.7708 5.43418C11.7708 6.01085 11.7141 6.57502 11.5983 7.12668C11.4846 7.67804 11.3038 8.21341 11.06 8.72085C10.8276 9.21206 10.5237 9.66615 10.1583 10.0683C9.79103 10.4641 9.34625 10.7801 8.85163 10.9967C8.31463 11.232 7.73373 11.3505 7.14746 11.3442C6.73996 11.3442 6.3333 11.2483 5.93163 11.0558C5.52996 10.8642 5.24163 10.6008 5.0683 10.2633C5.00746 10.4975 4.92413 10.8358 4.8133 11.2783C4.70663 11.72 4.63496 12.005 4.6033 12.1342C4.56996 12.2625 4.5083 12.4767 4.4183 12.7733C4.35726 12.9928 4.27896 13.2071 4.18413 13.4142L3.89746 13.9758C3.77349 14.2169 3.6349 14.4501 3.48246 14.6742C3.33163 14.8925 3.14496 15.1533 2.92246 15.4534L2.7983 15.4975L2.7158 15.4075C2.62663 14.4634 2.5808 13.8983 2.5808 13.7117C2.5808 13.1592 2.64663 12.5392 2.77663 11.8508C2.90413 11.1633 3.1058 10.2992 3.37663 9.26002C3.64746 8.22168 3.80246 7.61085 3.84413 7.43002C3.6533 7.04085 3.55663 6.53252 3.55663 5.90752C3.55663 5.40835 3.71246 4.94085 4.02496 4.50085C4.3383 4.06252 4.73413 3.84335 5.21413 3.84335C5.58163 3.84335 5.86663 3.96502 6.0708 4.20918C6.2758 4.45252 6.3758 4.75918 6.3758 5.13335C6.3758 5.53002 6.24413 6.10418 5.97913 6.85502C5.71413 7.60668 5.58246 8.16752 5.58246 8.54002C5.58246 8.91752 5.71746 9.23335 5.98746 9.48085C6.25392 9.72847 6.60629 9.86267 6.96996 9.85502C7.29996 9.85502 7.6058 9.78002 7.88996 9.62918C8.16969 9.48277 8.41181 9.27373 8.59746 9.01835C9.00181 8.4636 9.29007 7.83295 9.44496 7.16418C9.52496 6.81252 9.58663 6.47835 9.62496 6.16418C9.6658 5.84835 9.6833 5.55002 9.6833 5.26668C9.6833 4.22752 9.3533 3.41752 8.69746 2.83752C8.0383 2.25752 7.17996 1.96918 6.12413 1.96918C4.9233 1.96918 3.91913 2.35752 3.11496 3.13668C2.30996 3.91335 1.90496 4.90085 1.90496 6.09835C1.90496 6.36252 1.94496 6.61752 2.0208 6.86418C2.09496 7.11002 2.1758 7.30585 2.2633 7.45085C2.34996 7.59335 2.43163 7.73252 2.5058 7.86085C2.5808 7.98918 2.61996 8.08085 2.61996 8.13585C2.61996 8.30418 2.5758 8.52335 2.48663 8.79418C2.39413 9.06502 2.28496 9.20002 2.1533 9.20002C2.1408 9.20002 2.08913 9.19085 1.99913 9.17168C1.68743 9.07863 1.40594 8.90467 1.1833 8.66751C0.946994 8.42173 0.760508 8.13252 0.634129 7.81585C0.508111 7.50031 0.409959 7.17434 0.340796 6.84168C0.266073 6.52691 0.229145 6.20436 0.230796 5.88085Z" fill="#7D59C3"/>
</svg>
