<svg width="18" height="14" viewBox="0 0 18 14" fill="none" xmlns="http://www.w3.org/2000/svg">
<path d="M16.9525 2.41501C17.3333 3.90001 17.3333 7.00001 17.3333 7.00001C17.3333 7.00001 17.3333 10.1 16.9525 11.585C16.7408 12.4058 16.1217 13.0517 15.3375 13.27C13.9133 13.6667 8.99999 13.6667 8.99999 13.6667C8.99999 13.6667 4.08916 13.6667 2.66249 13.27C1.87499 13.0483 1.25666 12.4033 1.04749 11.585C0.666657 10.1 0.666656 7.00001 0.666656 7.00001C0.666656 7.00001 0.666657 3.90001 1.04749 2.41501C1.25916 1.59418 1.87832 0.948343 2.66249 0.73001C4.08916 0.333343 8.99999 0.333344 8.99999 0.333344C8.99999 0.333344 13.9133 0.333343 15.3375 0.73001C16.125 0.951677 16.7433 1.59668 16.9525 2.41501ZM7.33332 9.91668L12.3333 7.00001L7.33332 4.08334V9.91668Z" fill="#7D59C3"/>
</svg>
